PathFileType  4	(X/Y/Z) C:\Users\HPL 1\Documents/Temp/Sub278498/Files_W_HJCs/
DataRate	CameraRate	NumFrames	NumMarkers	Units	OrigDataRate	OrigDataStartFrame	OrigNumFrames
50.0	50.0	4	42	mm	50.0	142	227
Frame#	Time  	r_knee			r_shank(antsup)			r_ankle			r_calc			r_5meta			r_toe			L_knee			L_shank(ant_sup)			L_ankle			L_calc			L_5meta			L_toe			r_mknee			r_mankle			L_mknee			L_mankle			r_sh2			r_sh3			r_sh4			L_sh2			L_sh3			r_thigh1			r_thigh2			r_thigh3			r_thigh4			r_thigh5			L_thigh1			L_thigh2			L_thigh3			L_thigh4			r.ASIS			r.PSIS			L.ASIS			L.PSIS			C7			R_Shoulder			L_Shoulder			Sternum			R_HJC			L_HJC			R_HJC_reg			L_HJC_reg			
		X1	Y1	Z1	X2	Y2	Z2	X3	Y3	Z3	X4	Y4	Z4	X5	Y5	Z5	X6	Y6	Z6	X7	Y7	Z7	X8	Y8	Z8	X9	Y9	Z9	X10	Y10	Z10	X11	Y11	Z11	X12	Y12	Z12	X13	Y13	Z13	X14	Y14	Z14	X15	Y15	Z15	X16	Y16	Z16	X17	Y17	Z17	X18	Y18	Z18	X19	Y19	Z19	X20	Y20	Z20	X21	Y21	Z21	X22	Y22	Z22	X23	Y23	Z23	X24	Y24	Z24	X25	Y25	Z25	X26	Y26	Z26	X27	Y27	Z27	X28	Y28	Z28	X29	Y29	Z29	X30	Y30	Z30	X31	Y31	Z31	X32	Y32	Z32	X33	Y33	Z33	X34	Y34	Z34	X35	Y35	Z35	X36	Y36	Z36	X37	Y37	Z37	X38	Y38	Z38	X39	Y39	Z39	X40	Y40	Z40	X41	Y41	Z41	X42	Y42	Z42	

142	2.82000	775.19513	578.29785	-409.27234	789.07385	491.85574	-404.49283	735.20038	114.35820	-409.13934	646.56531	71.37051	-452.19388	847.13220	39.34475	-382.26288	886.24408	73.40245	-445.11301	769.17108	573.00647	-732.48688	793.59662	456.19897	-733.70868	705.55042	113.55811	-731.96417	629.91986	73.69124	-681.24005	821.03613	42.42182	-777.88196	868.27557	70.79855	-721.39166	773.17206	557.40436	-535.27032	747.27057	120.75189	-505.33978	786.84839	562.21472	-609.98315	737.11871	120.79562	-642.16803	785.25824	371.65408	-401.21051	714.03723	491.80341	-392.52148	703.24237	375.89673	-386.07162	705.75537	476.42520	-752.30212	693.49530	354.28455	-753.46741	846.88129	898.26782	-392.71564	844.49963	783.23236	-395.07947	798.93219	750.75745	-382.58066	733.66449	893.38159	-382.78976	738.15906	776.13495	-394.08463	861.21185	838.76111	-752.43988	861.05988	700.72253	-743.07404	746.09778	838.38696	-771.93866	748.15741	704.32288	-752.64508	872.02319	1093.92102	-446.41476	683.21350	1127.04773	-540.51208	882.70306	1095.43701	-704.12000	691.94348	1125.86255	-622.70569	730.95233	1608.59680	-588.59991	774.37836	1582.88110	-422.98126	800.14539	1575.81152	-763.99060	873.13196	1536.87671	-580.11548	802.51237	1005.69927	-459.03585	811.39336	1007.22703	-695.22858	797.55260	1018.58182	-489.70040	815.53063	1016.14113	-658.96523
143	2.84000	775.16785	578.18011	-409.20682	789.11896	491.81149	-404.44128	735.19153	114.34805	-409.12903	646.55096	71.41740	-452.18588	847.16779	39.38337	-382.21851	886.23438	73.40163	-445.09866	769.15808	572.96118	-732.46838	793.59198	456.22296	-733.70325	705.58673	113.54108	-731.96344	629.93164	73.64623	-681.23468	821.05493	42.40333	-777.87476	868.28369	70.80122	-721.42004	773.11749	557.19080	-535.22003	747.28064	120.78189	-505.36349	786.84613	562.18518	-609.90094	737.17487	120.77918	-642.17145	785.25336	371.56805	-401.19064	714.04285	491.77283	-392.50598	703.14197	375.89377	-386.08115	705.78308	476.48010	-752.32526	693.56433	354.29718	-753.61401	846.95007	898.22614	-392.73840	844.61414	783.18372	-395.00632	798.97894	750.71466	-382.46466	733.76978	893.36914	-383.04364	738.28345	776.09686	-394.16501	861.35803	838.74353	-752.39722	861.11792	700.68097	-743.03564	746.26886	838.39044	-772.00775	748.32715	704.35706	-752.63196	872.08252	1093.88184	-446.34180	683.37646	1127.06177	-540.54266	882.89532	1095.40234	-704.09247	692.23669	1125.85071	-622.68848	731.14856	1608.55713	-588.61487	774.36108	1582.88574	-423.01111	800.33032	1575.72229	-763.94360	873.23511	1536.91028	-580.06781	802.60409	1005.67304	-459.00711	811.59578	1007.20363	-695.19563	797.52797	1018.57985	-489.74022	815.78517	1016.08437	-659.00819
144	2.86000	775.07983	577.90411	-409.19620	789.06653	491.79617	-404.42258	735.21039	114.33171	-409.10861	646.53705	71.39991	-452.22623	847.14014	39.34818	-382.24823	886.21918	73.39790	-445.10303	769.11523	572.99011	-732.46851	793.53992	456.23230	-733.68036	705.57159	113.53686	-731.94128	629.95032	73.71116	-681.21570	821.03601	42.43019	-777.88684	868.28156	70.78587	-721.40521	773.02686	556.81042	-535.12457	747.23773	120.75814	-505.38165	786.75562	562.16760	-609.89502	737.21851	120.76128	-642.19305	785.22089	371.55609	-401.19040	714.02234	491.73798	-392.49805	703.13354	375.85510	-386.05899	705.72150	476.43140	-752.25519	693.46112	354.34824	-753.48370	847.02106	898.18610	-392.81412	844.74512	783.14923	-394.90848	799.02356	750.66852	-382.28860	733.82306	893.33636	-383.31973	738.39990	776.04767	-394.11084	861.52393	838.70862	-752.28662	861.19989	700.62549	-742.94818	746.37933	838.38708	-772.03668	748.40112	704.32544	-752.57135	872.21124	1093.83997	-446.26785	683.45343	1127.13098	-540.53363	883.09900	1095.40784	-704.03363	692.37115	1125.86670	-622.75836	731.25867	1608.56616	-588.59918	774.34442	1582.87866	-423.00507	800.47577	1575.65649	-763.91333	873.23541	1536.98547	-580.01501	802.66372	1005.66780	-458.99172	811.75357	1007.22048	-695.17634	797.56777	1018.66586	-489.67566	815.92578	1016.06322	-658.94342
145	2.88000	775.01740	577.47870	-409.09579	789.02844	491.66907	-404.35965	735.17310	114.33463	-409.12375	646.55389	71.49050	-452.15402	847.14233	39.34230	-382.23920	886.22192	73.45326	-445.06567	769.04712	573.02020	-732.45142	793.45428	456.27246	-733.71527	705.62866	113.58537	-731.95270	629.90741	73.74043	-681.22205	821.05627	42.44660	-777.85645	868.29095	70.81565	-721.41998	773.01318	556.36035	-535.03961	747.25360	120.80275	-505.38779	786.67688	562.14709	-609.85858	737.13843	120.74580	-642.13275	785.12994	371.47864	-401.19800	713.95178	491.68460	-392.45370	703.09009	375.80515	-386.05139	705.63293	476.44412	-752.25549	693.43420	354.29391	-753.53583	847.15131	898.04895	-393.02222	844.68842	783.04199	-394.69727	799.17548	750.58868	-382.06750	733.96838	893.33936	-383.62860	738.56708	775.99432	-394.05820	861.62726	838.71149	-752.18469	861.28058	700.67444	-742.89569	746.53064	838.38940	-772.04901	748.56635	704.35327	-752.55548	872.31342	1093.83875	-446.21539	683.57562	1127.14978	-540.54199	883.23438	1095.35400	-703.95441	692.54071	1125.92737	-622.69836	731.38977	1608.60620	-588.56183	774.35144	1582.89746	-422.97955	800.55499	1575.68652	-763.84088	873.29907	1536.93823	-579.89471	802.73533	1005.68117	-458.92941	811.86984	1007.20175	-695.11252	797.64861	1018.59090	-489.70693	816.11647	1016.07276	-658.94699
